<?xml version="1.0" encoding="UTF-8"?>
<svg width="252px" height="60px" viewBox="0 0 252 60" version="1.1" xmlns="http://www.w3.org/2000/svg" xmlns:xlink="http://www.w3.org/1999/xlink">
    <!-- Generator: Sketch 49 (51002) - http://www.bohemiancoding.com/sketch -->
    <title>Brand/Logo/Full</title>
    <desc>Created with Sketch.</desc>
    <defs>
        <path d="M13.2,12 L18,7.2 L18,30 L4.8,16.8 L4.8,36 L0,36 L0,6 L13.2,19.2 L13.2,12 Z M31.2,19.2 L31.2,0 L36,0 L36,30 L19.2,13.2 L19.2,7.2 L31.2,19.2 Z M35.7,29.2757359 L35.7,0.3 L31.5,0.3 L31.5,19.9242641 L19.5,7.92426407 L19.5,13.0757359 L35.7,29.2757359 Z" id="path-1"></path>
    </defs>
    <g id="Brand/Logo/Full" stroke="none" stroke-width="1" fill="none" fill-rule="evenodd">
        <g>
            <g id="Brand/Logo/Icon" stroke-width="1">
                <g id="Page-1" transform="translate(12.000000, 12.000000)">
                    <g id="Brand/Color/5">
                        <mask id="mask-2" fill="white">
                            <use xlink:href="#path-1"></use>
                        </mask>
                        <use id="Combined-Shape" fill="#231F20" xlink:href="#path-1"></use>
                        <g mask="url(#mask-2)" fill="#0D475A" id="Rectangle">
                            <g transform="translate(-12.000000, -12.000000)">
                                <rect x="0" y="0" width="60" height="60"></rect>
                            </g>
                        </g>
                    </g>
                </g>
            </g>
            <path d="M70.0625922,23.832 L73.1189536,23.832 L73.1189536,36.45 L70.2423781,36.45 L64.5251843,28.908 L64.5251843,36.45 L61.4508442,36.45 L61.4508442,23.832 L64.3453983,23.832 L70.0805707,31.428 L70.0625922,23.832 Z M81.6168371,23.634 C82.8993168,23.634 84.0589247,23.9159972 85.0956956,24.48 C86.1324665,25.0440028 86.9474881,25.8179951 87.5407848,26.802 C88.1340814,27.7860049 88.4307253,28.8899939 88.4307253,30.114 C88.4307253,31.3500062 88.1340814,32.465995 87.5407848,33.462 C86.9474881,34.458005 86.1324665,35.2439971 85.0956956,35.82 C84.0589247,36.3960029 82.8993168,36.684 81.6168371,36.684 C80.3343574,36.684 79.1747495,36.3990029 78.1379786,35.829 C77.1012077,35.2589971 76.2861861,34.473005 75.6928894,33.471 C75.0995928,32.468995 74.8029489,31.3500062 74.8029489,30.114 C74.8029489,28.8899939 75.0995928,27.7860049 75.6928894,26.802 C76.2861861,25.8179951 77.1012077,25.0440028 78.1379786,24.48 C79.1747495,23.9159972 80.3343574,23.634 81.6168371,23.634 Z M81.6527943,26.424 C81.0295332,26.424 80.4512274,26.5859984 79.9178597,26.91 C79.384492,27.2340016 78.9619992,27.6809971 78.6503686,28.251 C78.338738,28.8210028 78.1829251,29.4479966 78.1829251,30.132 C78.1829251,30.8280035 78.3417344,31.4609971 78.6593579,32.031 C78.9769814,32.6010029 79.3994742,33.0509984 79.926849,33.381 C80.4542238,33.7110017 81.0295332,33.876 81.6527943,33.876 C82.2760554,33.876 82.8483684,33.7110017 83.3697503,33.381 C83.8911322,33.0509984 84.3016394,32.6010029 84.6012842,32.031 C84.900929,31.4609971 85.0507491,30.8280035 85.0507491,30.132 C85.0507491,29.4479966 84.900929,28.8210028 84.6012842,28.251 C84.3016394,27.6809971 83.8911322,27.2340016 83.3697503,26.91 C82.8483684,26.5859984 82.2760554,26.424 81.6527943,26.424 Z M96.0836147,23.832 C97.0304923,23.832 97.854503,23.9609987 98.5556718,24.219 C99.2568406,24.4770013 99.7991895,24.8459976 100.182735,25.326 C100.56628,25.8060024 100.75805,26.3699968 100.75805,27.018 C100.75805,27.6780033 100.563284,28.2539975 100.173746,28.746 C99.7842073,29.2380025 99.253844,29.5739991 98.5826397,29.754 C99.3856877,29.9100008 100.017929,30.2759971 100.479382,30.852 C100.940835,31.4280029 101.171558,32.1239959 101.171558,32.94 C101.171558,33.6480035 100.973795,34.2689973 100.578264,34.803 C100.182733,35.3370027 99.6194091,35.7449986 98.8882759,36.027 C98.1571426,36.3090014 97.3001714,36.45 96.3173365,36.45 L90.096742,36.45 L90.096742,23.832 L96.0836147,23.832 Z M95.9038288,28.854 C96.3592888,28.854 96.7188572,28.7430011 96.9825446,28.521 C97.246232,28.2989989 97.3780737,27.990002 97.3780737,27.594 C97.3780737,27.2099981 97.246232,26.913001 96.9825446,26.703 C96.7188572,26.492999 96.3592888,26.3939999 95.9038288,26.406 L93.3868252,26.406 L93.3868252,28.854 L95.9038288,28.854 Z M95.9038288,33.894 C96.4791468,33.894 96.9346,33.7740012 97.2702021,33.534 C97.6058043,33.2939988 97.7736029,32.9580022 97.7736029,32.526 C97.7736029,32.129998 97.6058043,31.8150012 97.2702021,31.581 C96.9346,31.3469988 96.4791468,31.2359999 95.9038288,31.248 L93.3868252,31.248 L93.3868252,33.894 L95.9038288,33.894 Z M102.999382,23.832 L106.289465,23.832 L106.289465,33.642 L111.629108,33.642 L111.629108,36.45 L102.999382,36.45 L102.999382,23.832 Z M113.301118,23.832 L123.243282,23.832 L123.243282,26.46 L116.591201,26.46 L116.591201,28.818 L122.596052,28.818 L122.596052,31.428 L116.591201,31.446 L116.591201,33.822 L123.423068,33.822 L123.423068,36.45 L113.301118,36.45 L113.301118,23.832 Z" id="Noble" fill="#0B2027"></path>
            <path d="M140.029298,23.832 L143.08566,23.832 L143.08566,36.45 L140.209084,36.45 L134.491891,28.908 L134.491891,36.45 L131.417551,36.45 L131.417551,23.832 L134.312105,23.832 L140.047277,31.428 L140.029298,23.832 Z M145.578692,23.832 L155.520856,23.832 L155.520856,26.46 L148.868775,26.46 L148.868775,28.818 L154.873627,28.818 L154.873627,31.428 L148.868775,31.446 L148.868775,33.822 L155.700642,33.822 L155.700642,36.45 L145.578692,36.45 L145.578692,23.832 Z M156.947158,23.832 L167.752295,23.832 L167.752295,26.55 L163.97679,26.55 L163.97679,36.45 L160.686706,36.45 L160.686706,26.55 L156.947158,26.55 L156.947158,23.832 Z M185.560095,23.832 L188.940071,23.832 L184.679144,36.45 L181.299168,36.45 L178.908014,27.864 L176.480904,36.45 L173.100927,36.45 L168.857979,23.832 L172.399762,23.832 L174.880809,33.048 L177.361855,23.832 L180.580024,23.832 L183.097027,33.048 L185.560095,23.832 Z M196.068585,23.634 C197.351065,23.634 198.510673,23.9159972 199.547444,24.48 C200.584214,25.0440028 201.399236,25.8179951 201.992533,26.802 C202.585829,27.7860049 202.882473,28.8899939 202.882473,30.114 C202.882473,31.3500062 202.585829,32.465995 201.992533,33.462 C201.399236,34.458005 200.584214,35.2439971 199.547444,35.82 C198.510673,36.3960029 197.351065,36.684 196.068585,36.684 C194.786105,36.684 193.626497,36.3990029 192.589727,35.829 C191.552956,35.2589971 190.737934,34.473005 190.144637,33.471 C189.551341,32.468995 189.254697,31.3500062 189.254697,30.114 C189.254697,28.8899939 189.551341,27.7860049 190.144637,26.802 C190.737934,25.8179951 191.552956,25.0440028 192.589727,24.48 C193.626497,23.9159972 194.786105,23.634 196.068585,23.634 Z M196.104542,26.424 C195.481281,26.424 194.902975,26.5859984 194.369608,26.91 C193.83624,27.2340016 193.413747,27.6809972 193.102117,28.251 C192.790486,28.8210028 192.634673,29.4479966 192.634673,30.132 C192.634673,30.8280035 192.793482,31.4609971 193.111106,32.031 C193.428729,32.6010029 193.851222,33.0509984 194.378597,33.381 C194.905972,33.7110017 195.481281,33.876 196.104542,33.876 C196.727803,33.876 197.300116,33.7110017 197.821498,33.381 C198.34288,33.0509984 198.753387,32.6010029 199.053032,32.031 C199.352677,31.4609971 199.502497,30.8280035 199.502497,30.132 C199.502497,29.4479966 199.352677,28.8210028 199.053032,28.251 C198.753387,27.6809972 198.34288,27.2340016 197.821498,26.91 C197.300116,26.5859984 196.727803,26.424 196.104542,26.424 Z M212.117479,36.45 L210.283662,32.958 L207.838573,32.958 L207.838573,36.45 L204.54849,36.45 L204.54849,23.832 L210.211748,23.832 C211.877773,23.832 213.169223,24.2189961 214.086136,24.993 C215.003049,25.7670039 215.461498,26.855993 215.461498,28.26 C215.461498,29.2080047 215.269728,30.0269965 214.886183,30.717 C214.502638,31.4070034 213.945307,31.9439981 213.214174,32.328 L215.839049,36.45 L212.117479,36.45 Z M207.838573,30.33 L210.229727,30.33 C210.900931,30.33 211.419309,30.1620017 211.784875,29.826 C212.150442,29.4899983 212.333222,29.0040032 212.333222,28.368 C212.333222,27.7559969 212.150442,27.2850017 211.784875,26.955 C211.419309,26.6249984 210.900931,26.46 210.229727,26.46 L207.838573,26.46 L207.838573,30.33 Z M229.712533,36.45 L225.77522,36.45 L222.467158,31.554 L220.885042,33.318 L220.885042,36.45 L217.594958,36.45 L217.594958,23.832 L220.885042,23.832 L220.885042,29.304 L225.613413,23.832 L229.424875,23.832 L224.75044,29.034 L229.712533,36.45 Z M239.774554,27.63 C239.10335,27.233998 238.38721,26.9100013 237.626112,26.658 C236.865014,26.4059987 236.22678,26.28 235.711391,26.28 C235.303874,26.28 234.983259,26.3549992 234.749536,26.505 C234.515813,26.6550007 234.398954,26.8739986 234.398954,27.162 C234.398954,27.4380014 234.500831,27.6689991 234.70459,27.855 C234.908348,28.0410009 235.160046,28.1909994 235.459691,28.305 C235.759336,28.4190006 236.202803,28.5659991 236.790107,28.746 C237.66507,28.9980013 238.387203,29.2499987 238.956528,29.502 C239.525853,29.7540013 240.014267,30.1409974 240.421784,30.663 C240.8293,31.1850026 241.033056,31.8659958 241.033056,32.706 C241.033056,33.5460042 240.811322,34.262997 240.367848,34.857 C239.924374,35.451003 239.316104,35.8979985 238.54302,36.198 C237.769937,36.4980015 236.909969,36.648 235.963092,36.648 C234.920328,36.648 233.880576,36.4650018 232.843805,36.099 C231.807034,35.7329982 230.91111,35.2320032 230.156005,34.596 L231.432485,32.022 C232.067732,32.5860028 232.819829,33.0479982 233.688799,33.408 C234.557769,33.7680018 235.327844,33.948 235.999049,33.948 C236.490466,33.948 236.877002,33.8580009 237.158668,33.678 C237.440334,33.4979991 237.581165,33.2340017 237.581165,32.886 C237.581165,32.5979986 237.476291,32.358001 237.26654,32.166 C237.056788,31.973999 236.793105,31.8210006 236.475482,31.707 C236.157858,31.5929994 235.711394,31.4580008 235.136076,31.302 C234.273099,31.0619988 233.559955,30.8190012 232.996623,30.573 C232.433291,30.3269988 231.95087,29.9550025 231.549346,29.457 C231.147822,28.9589975 230.947063,28.2960041 230.947063,27.468 C230.947063,26.6879961 231.153815,26.0040029 231.567325,25.416 C231.980834,24.8279971 232.568129,24.3750016 233.329227,24.057 C234.090325,23.7389984 234.974264,23.58 235.98107,23.58 C236.89199,23.58 237.790911,23.7089987 238.67786,23.967 C239.564808,24.2250013 240.343873,24.5699978 241.015077,25.002 L239.774554,27.63 Z" id="Networks" fill="#0B2027"></path>
        </g>
    </g>
</svg>